<svg width="564" height="526" viewBox="0 0 564 526" fill="none" xmlns="http://www.w3.org/2000/svg">
<g clip-path="url(#clip0_131_16163)">
<rect x="371.758" y="121.39" width="158.493" height="39.8231" rx="8.76274" fill="white"/>
<path d="M392.434 141.301L395.447 144.314L401.471 138.289M406.993 141.301C406.993 146.847 402.498 151.342 396.953 151.342C391.407 151.342 386.912 146.847 386.912 141.301C386.912 135.756 391.407 131.261 396.953 131.261C402.498 131.261 406.993 135.756 406.993 141.301Z" stroke="#161C31" stroke-width="1.75255" stroke-linecap="round" stroke-linejoin="round"/>
<path d="M423.561 147.627C421.834 147.627 420.376 147.245 419.187 146.482C417.998 145.711 417.098 144.647 416.488 143.289C415.878 141.932 415.572 140.365 415.572 138.59C415.572 136.815 415.878 135.249 416.488 133.891C417.098 132.534 417.998 131.473 419.187 130.71C420.376 129.939 421.834 129.554 423.561 129.554C425.577 129.554 427.223 130.072 428.501 131.108C429.778 132.136 430.653 133.518 431.127 135.253L429.32 135.723C428.95 134.349 428.288 133.261 427.332 132.457C426.376 131.654 425.119 131.253 423.561 131.253C422.203 131.253 421.075 131.562 420.175 132.18C419.275 132.799 418.597 133.662 418.139 134.771C417.689 135.871 417.456 137.144 417.44 138.59C417.432 140.036 417.653 141.309 418.103 142.41C418.56 143.51 419.243 144.374 420.151 145C421.067 145.619 422.203 145.928 423.561 145.928C425.119 145.928 426.376 145.526 427.332 144.723C428.288 143.912 428.95 142.823 429.32 141.458L431.127 141.928C430.653 143.663 429.778 145.048 428.501 146.085C427.223 147.113 425.577 147.627 423.561 147.627Z" fill="#161C31"/>
<path d="M433.183 147.265V134.253H434.774V137.385L434.46 136.976C434.605 136.59 434.794 136.237 435.027 135.915C435.26 135.586 435.513 135.317 435.786 135.108C436.123 134.811 436.517 134.586 436.967 134.433C437.416 134.273 437.87 134.18 438.328 134.156C438.786 134.124 439.204 134.156 439.581 134.253V135.915C439.107 135.795 438.589 135.767 438.027 135.831C437.465 135.895 436.946 136.12 436.473 136.506C436.039 136.843 435.713 137.249 435.497 137.723C435.28 138.189 435.135 138.687 435.063 139.217C434.991 139.739 434.954 140.257 434.954 140.771V147.265H433.183Z" fill="#161C31"/>
<path d="M446.535 147.627C445.266 147.627 444.166 147.346 443.234 146.783C442.31 146.221 441.591 145.43 441.077 144.41C440.563 143.39 440.306 142.193 440.306 140.819C440.306 139.398 440.559 138.169 441.065 137.132C441.571 136.096 442.282 135.297 443.198 134.735C444.122 134.172 445.21 133.891 446.463 133.891C447.748 133.891 448.845 134.188 449.752 134.783C450.66 135.369 451.347 136.213 451.813 137.313C452.279 138.414 452.491 139.727 452.451 141.253H450.644V140.627C450.612 138.94 450.246 137.667 449.548 136.807C448.857 135.948 447.845 135.518 446.511 135.518C445.114 135.518 444.041 135.972 443.294 136.879C442.555 137.787 442.186 139.08 442.186 140.759C442.186 142.398 442.555 143.671 443.294 144.579C444.041 145.478 445.098 145.928 446.463 145.928C447.395 145.928 448.206 145.715 448.897 145.289C449.596 144.856 450.146 144.233 450.548 143.422L452.198 144.06C451.684 145.193 450.925 146.073 449.921 146.699C448.925 147.318 447.796 147.627 446.535 147.627ZM441.559 141.253V139.771H451.499V141.253H441.559Z" fill="#161C31"/>
<path d="M458.01 147.627C457.03 147.627 456.207 147.45 455.54 147.097C454.882 146.743 454.388 146.273 454.058 145.687C453.729 145.101 453.564 144.462 453.564 143.771C453.564 143.064 453.705 142.462 453.986 141.964C454.275 141.458 454.665 141.044 455.155 140.723C455.653 140.402 456.227 140.157 456.878 139.988C457.537 139.827 458.263 139.687 459.059 139.566C459.862 139.438 460.645 139.329 461.408 139.241C462.179 139.145 462.854 139.052 463.432 138.964L462.806 139.349C462.83 138.064 462.581 137.112 462.059 136.494C461.537 135.875 460.629 135.566 459.336 135.566C458.444 135.566 457.689 135.767 457.071 136.168C456.46 136.57 456.03 137.205 455.781 138.072L454.058 137.566C454.356 136.401 454.954 135.498 455.854 134.855C456.753 134.213 457.922 133.891 459.36 133.891C460.549 133.891 461.557 134.116 462.384 134.566C463.22 135.008 463.81 135.65 464.155 136.494C464.316 136.871 464.42 137.293 464.469 137.759C464.517 138.225 464.541 138.699 464.541 139.181V147.265H462.962V144L463.42 144.193C462.979 145.309 462.292 146.161 461.36 146.747C460.428 147.334 459.312 147.627 458.01 147.627ZM458.215 146.097C459.043 146.097 459.766 145.948 460.384 145.651C461.003 145.354 461.501 144.948 461.878 144.434C462.256 143.912 462.501 143.325 462.613 142.675C462.709 142.257 462.762 141.799 462.77 141.301C462.778 140.795 462.782 140.418 462.782 140.169L463.456 140.518C462.854 140.598 462.199 140.679 461.493 140.759C460.794 140.839 460.103 140.932 459.42 141.036C458.745 141.141 458.135 141.265 457.589 141.41C457.219 141.514 456.862 141.663 456.516 141.855C456.171 142.04 455.886 142.289 455.661 142.603C455.444 142.916 455.336 143.305 455.336 143.771C455.336 144.149 455.428 144.514 455.613 144.868C455.806 145.221 456.111 145.514 456.528 145.747C456.954 145.98 457.516 146.097 458.215 146.097Z" fill="#161C31"/>
<path d="M474.16 147.265C473.429 147.418 472.706 147.478 471.991 147.446C471.284 147.414 470.65 147.261 470.087 146.988C469.533 146.715 469.111 146.289 468.822 145.711C468.589 145.229 468.461 144.743 468.437 144.253C468.421 143.755 468.412 143.189 468.412 142.554V130.638H470.172V142.482C470.172 143.028 470.176 143.486 470.184 143.856C470.2 144.217 470.284 144.538 470.437 144.819C470.726 145.358 471.184 145.679 471.81 145.783C472.445 145.888 473.228 145.864 474.16 145.711V147.265ZM465.629 135.771V134.253H474.16V135.771H465.629Z" fill="#161C31"/>
<path d="M476.362 131.783V129.795H478.133V131.783H476.362ZM476.362 147.265V134.253H478.133V147.265H476.362Z" fill="#161C31"/>
<path d="M484.661 147.265L479.938 134.253H481.733L485.577 144.952L489.396 134.253H491.216L486.493 147.265H484.661Z" fill="#161C31"/>
<path d="M493.019 131.783V129.795H494.79V131.783H493.019ZM493.019 147.265V134.253H494.79V147.265H493.019Z" fill="#161C31"/>
<path d="M504.884 147.265C504.153 147.418 503.43 147.478 502.715 147.446C502.008 147.414 501.374 147.261 500.812 146.988C500.257 146.715 499.836 146.289 499.547 145.711C499.314 145.229 499.185 144.743 499.161 144.253C499.145 143.755 499.137 143.189 499.137 142.554V130.638H500.896V142.482C500.896 143.028 500.9 143.486 500.908 143.856C500.924 144.217 501.008 144.538 501.161 144.819C501.45 145.358 501.908 145.679 502.535 145.783C503.169 145.888 503.952 145.864 504.884 145.711V147.265ZM496.354 135.771V134.253H504.884V135.771H496.354Z" fill="#161C31"/>
<path d="M508.348 153.049L510.866 146.217L510.902 148.241L505.203 134.253H507.083L511.758 145.952H510.987L515.3 134.253H517.107L510.119 153.049H508.348Z" fill="#161C31"/>
<rect x="45" y="85.6187" width="197.681" height="39.8231" rx="8.76274" fill="white"/>
<path d="M65.6766 105.53L68.6888 108.543L74.7132 102.518M80.2356 105.53C80.2356 111.076 75.7402 115.571 70.1949 115.571C64.6496 115.571 60.1543 111.076 60.1543 105.53C60.1543 99.9851 64.6496 95.4897 70.1949 95.4897C75.7402 95.4897 80.2356 99.9851 80.2356 105.53Z" stroke="#161C31" stroke-width="1.75255" stroke-linecap="round" stroke-linejoin="round"/>
<path d="M96.8028 114.567C95.0758 114.567 93.6179 114.185 92.4291 113.422C91.2403 112.651 90.3406 111.587 89.7302 110.229C89.1197 108.872 88.8145 107.305 88.8145 105.53C88.8145 103.755 89.1197 102.189 89.7302 100.831C90.3406 99.4737 91.2403 98.4134 92.4291 97.6503C93.6179 96.8792 95.0758 96.4937 96.8028 96.4937C98.8189 96.4937 100.466 97.0117 101.743 98.0479C103.02 99.0761 103.895 100.458 104.369 102.193L102.562 102.663C102.193 101.289 101.53 100.201 100.574 99.3974C99.6182 98.5942 98.3611 98.1925 96.8028 98.1925C95.4453 98.1925 94.3167 98.5018 93.4171 99.1203C92.5174 99.7388 91.8387 100.602 91.3808 101.711C90.931 102.811 90.6981 104.084 90.682 105.53C90.674 106.976 90.8949 108.249 91.3447 109.35C91.8025 110.45 92.4853 111.314 93.393 111.94C94.3087 112.559 95.4453 112.868 96.8028 112.868C98.3611 112.868 99.6182 112.466 100.574 111.663C101.53 110.852 102.193 109.763 102.562 108.398L104.369 108.868C103.895 110.603 103.02 111.988 101.743 113.025C100.466 114.053 98.8189 114.567 96.8028 114.567Z" fill="#161C31"/>
<path d="M111.859 114.567C110.566 114.567 109.462 114.274 108.546 113.687C107.63 113.101 106.927 112.29 106.437 111.253C105.947 110.217 105.702 109.028 105.702 107.687C105.702 106.321 105.951 105.125 106.45 104.096C106.948 103.068 107.654 102.269 108.57 101.699C109.494 101.12 110.59 100.831 111.859 100.831C113.161 100.831 114.269 101.124 115.185 101.711C116.109 102.289 116.811 103.096 117.293 104.133C117.783 105.161 118.028 106.346 118.028 107.687C118.028 109.052 117.783 110.253 117.293 111.29C116.803 112.318 116.097 113.121 115.173 113.699C114.249 114.278 113.145 114.567 111.859 114.567ZM111.859 112.868C113.305 112.868 114.382 112.39 115.088 111.434C115.795 110.47 116.149 109.221 116.149 107.687C116.149 106.113 115.791 104.86 115.076 103.928C114.37 102.996 113.297 102.53 111.859 102.53C110.887 102.53 110.084 102.751 109.45 103.193C108.823 103.627 108.353 104.233 108.04 105.012C107.735 105.783 107.582 106.675 107.582 107.687C107.582 109.253 107.944 110.51 108.666 111.458C109.389 112.398 110.454 112.868 111.859 112.868Z" fill="#161C31"/>
<path d="M120.325 114.205V96.4937H122.096V114.205H120.325Z" fill="#161C31"/>
<path d="M125.347 114.205V96.4937H127.118V114.205H125.347Z" fill="#161C31"/>
<path d="M133.851 114.567C132.871 114.567 132.047 114.39 131.381 114.037C130.722 113.683 130.228 113.213 129.899 112.627C129.569 112.041 129.405 111.402 129.405 110.711C129.405 110.004 129.545 109.402 129.826 108.904C130.116 108.398 130.505 107.984 130.995 107.663C131.493 107.342 132.067 107.097 132.718 106.928C133.377 106.767 134.104 106.627 134.899 106.506C135.702 106.378 136.485 106.269 137.248 106.181C138.02 106.084 138.694 105.992 139.273 105.904L138.646 106.289C138.67 105.004 138.421 104.052 137.899 103.434C137.377 102.815 136.469 102.506 135.176 102.506C134.284 102.506 133.529 102.707 132.911 103.108C132.3 103.51 131.871 104.145 131.622 105.012L129.899 104.506C130.196 103.341 130.794 102.438 131.694 101.795C132.594 101.153 133.762 100.831 135.2 100.831C136.389 100.831 137.397 101.056 138.224 101.506C139.06 101.948 139.65 102.59 139.996 103.434C140.156 103.811 140.261 104.233 140.309 104.699C140.357 105.165 140.381 105.639 140.381 106.121V114.205H138.803V110.94L139.261 111.133C138.819 112.249 138.132 113.101 137.2 113.687C136.268 114.274 135.152 114.567 133.851 114.567ZM134.055 113.037C134.883 113.037 135.606 112.888 136.224 112.591C136.843 112.294 137.341 111.888 137.718 111.374C138.096 110.852 138.341 110.265 138.453 109.615C138.55 109.197 138.602 108.739 138.61 108.241C138.618 107.735 138.622 107.358 138.622 107.109L139.297 107.458C138.694 107.538 138.04 107.619 137.333 107.699C136.634 107.779 135.943 107.872 135.26 107.976C134.586 108.081 133.975 108.205 133.429 108.35C133.059 108.454 132.702 108.603 132.357 108.795C132.011 108.98 131.726 109.229 131.501 109.542C131.284 109.856 131.176 110.245 131.176 110.711C131.176 111.089 131.268 111.454 131.453 111.808C131.646 112.161 131.951 112.454 132.369 112.687C132.794 112.92 133.357 113.037 134.055 113.037Z" fill="#161C31"/>
<path d="M148.759 114.567C147.562 114.567 146.55 114.266 145.723 113.663C144.895 113.053 144.269 112.229 143.843 111.193C143.417 110.149 143.204 108.98 143.204 107.687C143.204 106.37 143.417 105.197 143.843 104.169C144.277 103.133 144.911 102.317 145.747 101.723C146.582 101.128 147.61 100.831 148.831 100.831C150.02 100.831 151.04 101.132 151.892 101.735C152.743 102.337 153.394 103.157 153.844 104.193C154.301 105.229 154.53 106.394 154.53 107.687C154.53 108.988 154.301 110.157 153.844 111.193C153.386 112.229 152.727 113.053 151.868 113.663C151.008 114.266 149.972 114.567 148.759 114.567ZM142.903 114.205V96.8551H144.686V104.41H144.494V114.205H142.903ZM148.578 112.916C149.486 112.916 150.241 112.687 150.843 112.229C151.446 111.771 151.896 111.149 152.193 110.362C152.498 109.567 152.651 108.675 152.651 107.687C152.651 106.707 152.502 105.823 152.205 105.036C151.908 104.249 151.454 103.627 150.843 103.169C150.241 102.711 149.474 102.482 148.542 102.482C147.634 102.482 146.879 102.703 146.277 103.145C145.682 103.586 145.237 104.201 144.939 104.988C144.642 105.767 144.494 106.667 144.494 107.687C144.494 108.691 144.642 109.591 144.939 110.386C145.237 111.173 145.686 111.792 146.289 112.241C146.891 112.691 147.654 112.916 148.578 112.916Z" fill="#161C31"/>
<path d="M162.008 114.567C160.714 114.567 159.61 114.274 158.694 113.687C157.779 113.101 157.076 112.29 156.586 111.253C156.096 110.217 155.851 109.028 155.851 107.687C155.851 106.321 156.1 105.125 156.598 104.096C157.096 103.068 157.803 102.269 158.718 101.699C159.642 101.12 160.739 100.831 162.008 100.831C163.309 100.831 164.417 101.124 165.333 101.711C166.257 102.289 166.96 103.096 167.442 104.133C167.932 105.161 168.177 106.346 168.177 107.687C168.177 109.052 167.932 110.253 167.442 111.29C166.952 112.318 166.245 113.121 165.321 113.699C164.397 114.278 163.293 114.567 162.008 114.567ZM162.008 112.868C163.454 112.868 164.53 112.39 165.237 111.434C165.944 110.47 166.297 109.221 166.297 107.687C166.297 106.113 165.94 104.86 165.225 103.928C164.518 102.996 163.445 102.53 162.008 102.53C161.036 102.53 160.232 102.751 159.598 103.193C158.971 103.627 158.501 104.233 158.188 105.012C157.883 105.783 157.73 106.675 157.73 107.687C157.73 109.253 158.092 110.51 158.815 111.458C159.538 112.398 160.602 112.868 162.008 112.868Z" fill="#161C31"/>
<path d="M170.232 114.205V101.193H171.823V104.325L171.509 103.916C171.654 103.53 171.843 103.177 172.076 102.855C172.308 102.526 172.562 102.257 172.835 102.048C173.172 101.751 173.566 101.526 174.015 101.373C174.465 101.213 174.919 101.12 175.377 101.096C175.835 101.064 176.252 101.096 176.63 101.193V102.855C176.156 102.735 175.638 102.707 175.076 102.771C174.513 102.835 173.995 103.06 173.521 103.446C173.088 103.783 172.762 104.189 172.545 104.663C172.329 105.129 172.184 105.627 172.112 106.157C172.039 106.679 172.003 107.197 172.003 107.711V114.205H170.232Z" fill="#161C31"/>
<path d="M181.566 114.567C180.586 114.567 179.762 114.39 179.096 114.037C178.437 113.683 177.943 113.213 177.614 112.627C177.284 112.041 177.12 111.402 177.12 110.711C177.12 110.004 177.26 109.402 177.541 108.904C177.831 108.398 178.22 107.984 178.71 107.663C179.208 107.342 179.782 107.097 180.433 106.928C181.092 106.767 181.819 106.627 182.614 106.506C183.417 106.378 184.2 106.269 184.963 106.181C185.735 106.084 186.409 105.992 186.988 105.904L186.361 106.289C186.385 105.004 186.136 104.052 185.614 103.434C185.092 102.815 184.184 102.506 182.891 102.506C181.999 102.506 181.244 102.707 180.626 103.108C180.015 103.51 179.586 104.145 179.337 105.012L177.614 104.506C177.911 103.341 178.509 102.438 179.409 101.795C180.309 101.153 181.477 100.831 182.915 100.831C184.104 100.831 185.112 101.056 185.939 101.506C186.775 101.948 187.365 102.59 187.711 103.434C187.871 103.811 187.976 104.233 188.024 104.699C188.072 105.165 188.096 105.639 188.096 106.121V114.205H186.518V110.94L186.976 111.133C186.534 112.249 185.847 113.101 184.915 113.687C183.983 114.274 182.867 114.567 181.566 114.567ZM181.77 113.037C182.598 113.037 183.321 112.888 183.939 112.591C184.558 112.294 185.056 111.888 185.433 111.374C185.811 110.852 186.056 110.265 186.168 109.615C186.265 109.197 186.317 108.739 186.325 108.241C186.333 107.735 186.337 107.358 186.337 107.109L187.012 107.458C186.409 107.538 185.755 107.619 185.048 107.699C184.349 107.779 183.658 107.872 182.975 107.976C182.301 108.081 181.69 108.205 181.144 108.35C180.774 108.454 180.417 108.603 180.072 108.795C179.726 108.98 179.441 109.229 179.216 109.542C178.999 109.856 178.891 110.245 178.891 110.711C178.891 111.089 178.983 111.454 179.168 111.808C179.361 112.161 179.666 112.454 180.084 112.687C180.509 112.92 181.072 113.037 181.77 113.037Z" fill="#161C31"/>
<path d="M197.715 114.205C196.984 114.358 196.261 114.418 195.546 114.386C194.839 114.354 194.205 114.201 193.642 113.928C193.088 113.655 192.667 113.229 192.377 112.651C192.144 112.169 192.016 111.683 191.992 111.193C191.976 110.695 191.968 110.129 191.968 109.494V97.578H193.727V109.422C193.727 109.968 193.731 110.426 193.739 110.796C193.755 111.157 193.839 111.478 193.992 111.759C194.281 112.298 194.739 112.619 195.365 112.723C196 112.828 196.783 112.804 197.715 112.651V114.205ZM189.184 102.711V101.193H197.715V102.711H189.184Z" fill="#161C31"/>
<path d="M199.917 98.7227V96.7346H201.688V98.7227H199.917ZM199.917 114.205V101.193H201.688V114.205H199.917Z" fill="#161C31"/>
<path d="M210.132 114.567C208.839 114.567 207.734 114.274 206.819 113.687C205.903 113.101 205.2 112.29 204.71 111.253C204.22 110.217 203.975 109.028 203.975 107.687C203.975 106.321 204.224 105.125 204.722 104.096C205.22 103.068 205.927 102.269 206.843 101.699C207.767 101.12 208.863 100.831 210.132 100.831C211.433 100.831 212.542 101.124 213.458 101.711C214.381 102.289 215.084 103.096 215.566 104.133C216.056 105.161 216.301 106.346 216.301 107.687C216.301 109.052 216.056 110.253 215.566 111.29C215.076 112.318 214.369 113.121 213.446 113.699C212.522 114.278 211.417 114.567 210.132 114.567ZM210.132 112.868C211.578 112.868 212.654 112.39 213.361 111.434C214.068 110.47 214.421 109.221 214.421 107.687C214.421 106.113 214.064 104.86 213.349 103.928C212.642 102.996 211.57 102.53 210.132 102.53C209.16 102.53 208.357 102.751 207.722 103.193C207.096 103.627 206.626 104.233 206.313 105.012C206.007 105.783 205.855 106.675 205.855 107.687C205.855 109.253 206.216 110.51 206.939 111.458C207.662 112.398 208.726 112.868 210.132 112.868Z" fill="#161C31"/>
<path d="M227.755 114.205V107.566C227.755 106.844 227.686 106.181 227.55 105.578C227.413 104.968 227.192 104.438 226.887 103.988C226.59 103.53 226.2 103.177 225.718 102.928C225.244 102.679 224.666 102.554 223.983 102.554C223.357 102.554 222.803 102.663 222.321 102.879C221.847 103.096 221.445 103.41 221.116 103.819C220.794 104.221 220.549 104.711 220.381 105.289C220.212 105.868 220.128 106.526 220.128 107.265L218.875 106.988C218.875 105.655 219.108 104.534 219.573 103.627C220.039 102.719 220.682 102.032 221.501 101.566C222.321 101.1 223.26 100.867 224.321 100.867C225.1 100.867 225.779 100.988 226.357 101.229C226.943 101.47 227.437 101.795 227.839 102.205C228.249 102.614 228.578 103.084 228.827 103.614C229.076 104.137 229.257 104.695 229.369 105.289C229.482 105.876 229.538 106.462 229.538 107.048V114.205H227.755ZM218.344 114.205V101.193H219.947V104.398H220.128V114.205H218.344Z" fill="#161C31"/>
<rect x="401.17" y="290.706" width="144.981" height="39.8231" rx="8.76274" fill="white"/>
<path d="M421.847 310.618L424.859 313.63L430.883 307.606M436.405 310.618C436.405 316.163 431.91 320.658 426.365 320.658C420.82 320.658 416.324 316.163 416.324 310.618C416.324 305.072 420.82 300.577 426.365 300.577C431.91 300.577 436.405 305.072 436.405 310.618Z" stroke="#161C31" stroke-width="1.75255" stroke-linecap="round" stroke-linejoin="round"/>
<path d="M444.984 316.401V299.051H446.756V306.87H456.346V299.051H458.105V316.401H456.346V308.569H446.756V316.401H444.984Z" fill="#161C31"/>
<path d="M466.312 316.762C465.019 316.762 463.915 316.469 462.999 315.883C462.083 315.297 461.38 314.485 460.89 313.449C460.4 312.413 460.155 311.224 460.155 309.883C460.155 308.517 460.404 307.32 460.902 306.292C461.401 305.264 462.107 304.465 463.023 303.894C463.947 303.316 465.043 303.027 466.312 303.027C467.614 303.027 468.722 303.32 469.638 303.906C470.562 304.485 471.264 305.292 471.746 306.328C472.236 307.356 472.481 308.541 472.481 309.883C472.481 311.248 472.236 312.449 471.746 313.485C471.256 314.513 470.55 315.317 469.626 315.895C468.702 316.473 467.598 316.762 466.312 316.762ZM466.312 315.064C467.758 315.064 468.835 314.586 469.541 313.63C470.248 312.666 470.602 311.417 470.602 309.883C470.602 308.308 470.244 307.055 469.529 306.123C468.823 305.192 467.75 304.726 466.312 304.726C465.34 304.726 464.537 304.947 463.903 305.388C463.276 305.822 462.806 306.429 462.493 307.208C462.188 307.979 462.035 308.871 462.035 309.883C462.035 311.449 462.397 312.706 463.119 313.654C463.842 314.594 464.907 315.064 466.312 315.064Z" fill="#161C31"/>
<path d="M483.935 316.401V309.762C483.935 309.039 483.867 308.377 483.73 307.774C483.593 307.164 483.373 306.633 483.067 306.184C482.77 305.726 482.381 305.372 481.899 305.123C481.425 304.874 480.846 304.75 480.164 304.75C479.537 304.75 478.983 304.858 478.501 305.075C478.027 305.292 477.625 305.605 477.296 306.015C476.975 306.417 476.73 306.907 476.561 307.485C476.392 308.063 476.308 308.722 476.308 309.461L475.055 309.184C475.055 307.85 475.288 306.73 475.754 305.822C476.22 304.915 476.862 304.228 477.682 303.762C478.501 303.296 479.441 303.063 480.501 303.063C481.28 303.063 481.959 303.184 482.537 303.424C483.124 303.665 483.618 303.991 484.019 304.4C484.429 304.81 484.758 305.28 485.007 305.81C485.256 306.332 485.437 306.891 485.549 307.485C485.662 308.071 485.718 308.658 485.718 309.244V316.401H483.935ZM474.525 316.401V303.388H476.127V306.593H476.308V316.401H474.525Z" fill="#161C31"/>
<path d="M493.654 316.762C492.385 316.762 491.285 316.481 490.353 315.919C489.429 315.357 488.71 314.566 488.196 313.545C487.682 312.525 487.425 311.328 487.425 309.955C487.425 308.533 487.678 307.304 488.184 306.268C488.69 305.232 489.401 304.433 490.317 303.87C491.241 303.308 492.329 303.027 493.582 303.027C494.867 303.027 495.964 303.324 496.871 303.918C497.779 304.505 498.466 305.348 498.932 306.449C499.398 307.549 499.611 308.862 499.57 310.389H497.763V309.762C497.731 308.075 497.365 306.802 496.667 305.943C495.976 305.083 494.964 304.653 493.63 304.653C492.233 304.653 491.16 305.107 490.413 306.015C489.674 306.923 489.305 308.216 489.305 309.895C489.305 311.533 489.674 312.806 490.413 313.714C491.16 314.614 492.217 315.064 493.582 315.064C494.514 315.064 495.325 314.851 496.016 314.425C496.715 313.991 497.265 313.369 497.667 312.557L499.317 313.196C498.803 314.329 498.044 315.208 497.04 315.835C496.044 316.453 494.916 316.762 493.654 316.762ZM488.678 310.389V308.907H498.618V310.389H488.678Z" fill="#161C31"/>
<path d="M506.497 316.75C504.971 316.75 503.714 316.421 502.726 315.762C501.746 315.104 501.144 314.188 500.919 313.015L502.726 312.714C502.919 313.453 503.357 314.043 504.039 314.485C504.73 314.919 505.582 315.136 506.594 315.136C507.582 315.136 508.361 314.931 508.931 314.521C509.502 314.104 509.787 313.537 509.787 312.823C509.787 312.421 509.694 312.096 509.51 311.847C509.333 311.59 508.967 311.353 508.413 311.136C507.859 310.919 507.032 310.662 505.931 310.365C504.75 310.043 503.827 309.722 503.16 309.401C502.493 309.079 502.019 308.71 501.738 308.292C501.457 307.866 501.316 307.348 501.316 306.738C501.316 305.999 501.525 305.352 501.943 304.798C502.361 304.236 502.939 303.802 503.678 303.497C504.417 303.184 505.277 303.027 506.256 303.027C507.236 303.027 508.112 303.188 508.883 303.509C509.662 303.822 510.289 304.264 510.763 304.834C511.237 305.404 511.518 306.067 511.606 306.822L509.799 307.148C509.678 306.384 509.297 305.782 508.654 305.34C508.02 304.89 507.212 304.657 506.232 304.641C505.309 304.617 504.558 304.794 503.979 305.172C503.401 305.541 503.112 306.035 503.112 306.654C503.112 306.999 503.216 307.296 503.425 307.545C503.634 307.786 504.011 308.015 504.558 308.232C505.112 308.449 505.899 308.686 506.919 308.943C508.116 309.248 509.056 309.569 509.739 309.907C510.421 310.244 510.907 310.642 511.196 311.1C511.486 311.557 511.63 312.124 511.63 312.798C511.63 314.027 511.172 314.995 510.257 315.702C509.349 316.401 508.096 316.75 506.497 316.75Z" fill="#161C31"/>
<path d="M520.785 316.401C520.054 316.554 519.331 316.614 518.616 316.582C517.909 316.55 517.274 316.397 516.712 316.124C516.158 315.851 515.736 315.425 515.447 314.847C515.214 314.365 515.086 313.879 515.061 313.389C515.045 312.891 515.037 312.325 515.037 311.69V299.774H516.797V311.618C516.797 312.164 516.801 312.622 516.809 312.991C516.825 313.353 516.909 313.674 517.062 313.955C517.351 314.493 517.809 314.815 518.435 314.919C519.07 315.023 519.853 314.999 520.785 314.847V316.401ZM512.254 304.906V303.388H520.785V304.906H512.254Z" fill="#161C31"/>
<path d="M524.248 322.184L526.767 315.353L526.803 317.377L521.104 303.388H522.983L527.658 315.088H526.887L531.201 303.388H533.008L526.02 322.184H524.248Z" fill="#161C31"/>
<rect x="250.883" y="26" width="149.735" height="39.8231" rx="8.76274" fill="white"/>
<path d="M271.559 45.9117L274.572 48.9239L280.596 42.8995M286.118 45.9117C286.118 51.457 281.623 55.9524 276.078 55.9524C270.532 55.9524 266.037 51.457 266.037 45.9117C266.037 40.3664 270.532 35.8711 276.078 35.8711C281.623 35.8711 286.118 40.3664 286.118 45.9117Z" stroke="#161C31" stroke-width="1.75255" stroke-linecap="round" stroke-linejoin="round"/>
<path d="M294.697 51.6949V34.3447H305.541V36.0436H296.468V42.0439H304.095V43.7428H296.468V49.9961H305.541V51.6949H294.697Z" fill="#161C31"/>
<path d="M323.357 51.6949L323.369 43.1524C323.369 42.1483 323.088 41.3611 322.525 40.7908C321.971 40.2125 321.264 39.9233 320.405 39.9233C319.915 39.9233 319.437 40.0358 318.971 40.2607C318.505 40.4856 318.12 40.847 317.814 41.3451C317.517 41.8431 317.369 42.4937 317.369 43.297L316.32 42.9957C316.296 42.064 316.477 41.2487 316.862 40.5498C317.256 39.851 317.794 39.3088 318.477 38.9233C319.168 38.5297 319.947 38.3329 320.814 38.3329C322.124 38.3329 323.172 38.7385 323.959 39.5498C324.746 40.353 325.14 41.4414 325.14 42.815L325.128 51.6949H323.357ZM307.826 51.6949V38.6823H309.416V41.8873H309.609V51.6949H307.826ZM315.609 51.6949L315.621 43.2729C315.621 42.2367 315.344 41.4214 314.79 40.827C314.244 40.2245 313.521 39.9233 312.621 39.9233C311.722 39.9233 310.995 40.2326 310.44 40.8511C309.886 41.4615 309.609 42.2768 309.609 43.297L308.549 42.7186C308.549 41.8832 308.746 41.1362 309.139 40.4775C309.533 39.8108 310.071 39.2887 310.754 38.9112C311.437 38.5256 312.212 38.3329 313.079 38.3329C313.907 38.3329 314.641 38.5096 315.284 38.863C315.935 39.2164 316.445 39.7305 316.814 40.4053C317.184 41.08 317.369 41.8993 317.369 42.8632L317.356 51.6949H315.609Z" fill="#161C31"/>
<path d="M333.506 52.0564C332.309 52.0564 331.297 51.7552 330.469 51.1528C329.642 50.5423 329.015 49.7189 328.59 48.6828C328.164 47.6385 327.951 46.4698 327.951 45.1766C327.951 43.8592 328.164 42.6865 328.59 41.6583C329.023 40.6221 329.658 39.8068 330.493 39.2124C331.329 38.618 332.357 38.3208 333.578 38.3208C334.767 38.3208 335.787 38.622 336.638 39.2245C337.49 39.8269 338.14 40.6462 338.59 41.6824C339.048 42.7186 339.277 43.8833 339.277 45.1766C339.277 46.4778 339.048 47.6466 338.59 48.6828C338.132 49.7189 337.474 50.5423 336.614 51.1528C335.755 51.7552 334.718 52.0564 333.506 52.0564ZM327.65 57.4783V38.6823H329.24V48.4779H329.433V57.4783H327.65ZM333.325 50.4057C334.233 50.4057 334.988 50.1768 335.59 49.7189C336.192 49.2611 336.642 48.6386 336.939 47.8514C337.245 47.0562 337.397 46.1646 337.397 45.1766C337.397 44.1966 337.249 43.313 336.952 42.5258C336.654 41.7387 336.2 41.1161 335.59 40.6583C334.988 40.2004 334.22 39.9715 333.289 39.9715C332.381 39.9715 331.626 40.1924 331.024 40.6342C330.429 41.076 329.983 41.6905 329.686 42.4776C329.389 43.2568 329.24 44.1564 329.24 45.1766C329.24 46.1806 329.389 47.0803 329.686 47.8755C329.983 48.6627 330.433 49.2812 331.036 49.731C331.638 50.1808 332.401 50.4057 333.325 50.4057Z" fill="#161C31"/>
<path d="M345.043 52.0564C344.063 52.0564 343.24 51.8797 342.573 51.5263C341.915 51.1728 341.421 50.7029 341.091 50.1166C340.762 49.5302 340.597 48.8916 340.597 48.2008C340.597 47.4939 340.738 46.8915 341.019 46.3935C341.308 45.8874 341.698 45.4738 342.188 45.1525C342.686 44.8312 343.26 44.5862 343.911 44.4175C344.569 44.2568 345.296 44.1163 346.092 43.9958C346.895 43.8673 347.678 43.7588 348.441 43.6705C349.212 43.5741 349.887 43.4817 350.465 43.3933L349.839 43.7789C349.863 42.4937 349.614 41.5419 349.092 40.9234C348.57 40.3048 347.662 39.9956 346.369 39.9956C345.477 39.9956 344.722 40.1964 344.104 40.598C343.493 40.9997 343.063 41.6342 342.814 42.5017L341.091 41.9957C341.389 40.831 341.987 39.9273 342.887 39.2847C343.786 38.6421 344.955 38.3208 346.393 38.3208C347.582 38.3208 348.59 38.5457 349.417 38.9955C350.252 39.4373 350.843 40.0799 351.188 40.9234C351.349 41.3009 351.453 41.7226 351.502 42.1885C351.55 42.6544 351.574 43.1283 351.574 43.6102V51.6949H349.995V48.4297L350.453 48.6225C350.012 49.739 349.325 50.5905 348.393 51.1768C347.461 51.7632 346.345 52.0564 345.043 52.0564ZM345.248 50.5262C346.076 50.5262 346.798 50.3776 347.417 50.0804C348.036 49.7832 348.534 49.3776 348.911 48.8635C349.289 48.3414 349.534 47.755 349.646 47.1044C349.742 46.6867 349.795 46.2288 349.803 45.7308C349.811 45.2248 349.815 44.8472 349.815 44.5982L350.489 44.9476C349.887 45.028 349.232 45.1083 348.525 45.1886C347.827 45.2689 347.136 45.3613 346.453 45.4657C345.778 45.5702 345.168 45.6947 344.622 45.8392C344.252 45.9437 343.895 46.0923 343.549 46.2851C343.204 46.4698 342.919 46.7188 342.694 47.0321C342.477 47.3453 342.369 47.7349 342.369 48.2008C342.369 48.5783 342.461 48.9438 342.646 49.2972C342.838 49.6507 343.144 49.9439 343.561 50.1768C343.987 50.4097 344.549 50.5262 345.248 50.5262Z" fill="#161C31"/>
<path d="M361.193 51.6949C360.462 51.8476 359.739 51.9078 359.024 51.8757C358.317 51.8435 357.682 51.6909 357.12 51.4178C356.566 51.1447 356.144 50.719 355.855 50.1407C355.622 49.6587 355.494 49.1727 355.47 48.6828C355.453 48.1847 355.445 47.6184 355.445 46.9839V35.0677H357.205V46.9116C357.205 47.4578 357.209 47.9157 357.217 48.2851C357.233 48.6466 357.317 48.9679 357.47 49.249C357.759 49.7872 358.217 50.1085 358.843 50.2129C359.478 50.3174 360.261 50.2933 361.193 50.1407V51.6949ZM352.662 40.2004V38.6823H361.193V40.2004H352.662Z" fill="#161C31"/>
<path d="M372.552 51.6949V45.0561C372.552 44.3332 372.484 43.6705 372.347 43.068C372.211 42.4576 371.99 41.9274 371.685 41.4776C371.387 41.0197 370.998 40.6663 370.516 40.4173C370.042 40.1683 369.464 40.0438 368.781 40.0438C368.154 40.0438 367.6 40.1522 367.118 40.3691C366.644 40.586 366.243 40.8993 365.913 41.3089C365.592 41.7105 365.347 42.2005 365.178 42.7789C365.01 43.3572 364.925 44.0159 364.925 44.7549L363.672 44.4777C363.672 43.1443 363.905 42.0238 364.371 41.1161C364.837 40.2085 365.479 39.5217 366.299 39.0558C367.118 38.5899 368.058 38.357 369.118 38.357C369.897 38.357 370.576 38.4775 371.154 38.7184C371.741 38.9594 372.235 39.2847 372.636 39.6944C373.046 40.104 373.375 40.5739 373.624 41.1041C373.873 41.6262 374.054 42.1845 374.167 42.7789C374.279 43.3652 374.335 43.9516 374.335 44.538V51.6949H372.552ZM363.142 51.6949V34.3447H364.744V44.1404H364.925V51.6949H363.142Z" fill="#161C31"/>
<path d="M378.715 57.4783L381.233 50.6467L381.269 52.6709L375.57 38.6823H377.45L382.125 50.3816H381.354L385.667 38.6823H387.474L380.486 57.4783H378.715Z" fill="#161C31"/>
<path d="M425.791 253.751C425.791 245.331 416.71 252.831 416.71 234.963C416.71 222.647 412.629 222.647 404.136 217.978C392.775 211.764 405.607 203.235 397.849 196.065C390.092 188.896 381.709 180.366 381.709 165.145C381.709 149.924 376.231 146.101 363.289 132.02C352.627 120.402 341.818 112.387 334.318 109.519C278.875 82.3859 236.963 118.968 236.963 118.968C230.271 123.012 222.22 129.63 214.278 138.343C201.337 152.424 195.859 156.285 195.859 171.469C195.859 186.653 187.513 195.22 179.719 202.389C171.961 209.558 183.101 215.367 173.432 224.301C163.726 233.235 155.012 223.419 155.012 241.287C155.012 259.155 150.527 240.662 143.247 258.604C137.07 273.788 152.144 280.994 149.203 295.847C147.585 303.899 152.549 314.708 169.571 311.068C188.285 307.061 181.667 322.907 201.594 316.583C220.381 310.627 217.33 321.877 236.999 313.384C242.073 311.178 254.868 305.075 271.743 314.046C284.464 320.774 285.53 301.436 307.185 312.061C318.178 317.429 341.34 315.701 345.164 314.304C352.995 311.473 352.958 304.009 357.958 304.009C369.098 304.009 369.062 312.539 378.804 312.539C391.562 312.539 387.408 303.789 406.489 303.789C424.136 303.789 424.063 290.626 421.636 278.126C419.908 269.192 425.828 267.611 425.828 253.787L425.791 253.751Z" fill="#161C31"/>
<path d="M371.374 217.132C369.904 211.984 365.639 207.977 359.646 207.131C360.492 196.212 360.565 184.079 359.352 170.476C358.617 162.24 356.668 154.115 353.212 146.615C342.734 123.894 319.277 108.783 293.211 108.783C259.827 108.783 236.959 128.563 225.341 167.167C222.179 177.682 220.856 189.41 221.003 201.322C221.04 204.374 219.091 206.984 216.26 208.197C213.76 209.3 211.738 211.065 210.304 213.198C204.495 221.911 211.37 233.676 221.848 234.448C222.841 234.522 223.944 234.595 225.047 234.669C229.275 252.978 236.444 269.118 245.084 278.493L242.731 392.357C269.092 422.394 313.726 424.453 339.756 393.349L336.226 278.493C336.226 278.493 349.241 260.037 355.381 234.669L358.653 234.411C367.734 233.75 373.948 225.845 371.411 217.095L371.374 217.132Z" fill="white" stroke="#161C31" stroke-miterlimit="10" stroke-linecap="round"/>
<path d="M335.202 278.346C309.908 302.722 282.995 295.994 269.098 291.802C254.024 287.243 244.244 276.287 244.244 276.287V303.236L244.869 303.384C254.171 305.81 262.848 306.876 270.899 306.876C306.415 306.876 328.768 286.765 335.938 279.412L338.805 275.295C338.805 275.295 338.548 273.493 337.776 274.633C336.011 277.206 335.533 278.052 335.202 278.346V278.346Z" fill="#161C31"/>
<path d="M223.209 226.396C222.51 224.779 221.848 223.124 220.966 221.727C220.12 220.33 219.054 219.19 217.841 218.933C216.701 218.676 214.752 219.117 214.385 219.926C213.907 220.918 214.679 222.83 215.525 224.301C215.635 224.448 215.561 224.668 215.414 224.742C215.304 224.816 215.12 224.816 215.047 224.742C214.311 224.117 213.686 223.418 213.172 222.573C212.657 221.727 212.252 220.624 212.547 219.337C212.914 218.014 214.091 217.205 215.083 216.837C216.039 216.433 217.216 216.212 218.392 216.433C220.819 216.911 222.289 218.933 223.062 220.661C223.834 222.499 224.201 224.338 224.128 226.286C224.128 226.544 223.907 226.727 223.65 226.727C223.466 226.727 223.319 226.617 223.245 226.433L223.209 226.396Z" fill="#161C31"/>
<path d="M355.829 226.249C355.755 224.337 356.16 222.462 356.895 220.624C357.667 218.896 359.101 216.874 361.564 216.396C362.741 216.175 363.917 216.396 364.873 216.8C365.866 217.168 367.006 217.977 367.41 219.3C367.704 220.587 367.3 221.69 366.785 222.536C366.27 223.381 365.645 224.117 364.91 224.705C364.763 224.815 364.579 224.815 364.432 224.668C364.358 224.558 364.358 224.411 364.432 224.3C365.278 222.83 366.05 220.918 365.572 219.925C365.204 219.117 363.256 218.639 362.116 218.933C360.903 219.19 359.836 220.33 358.991 221.727C358.108 223.124 357.447 224.778 356.748 226.396C356.638 226.653 356.38 226.764 356.123 226.69C355.939 226.617 355.829 226.47 355.829 226.286V226.249Z" fill="#161C31"/>
<path d="M330.719 282.317C330.719 282.317 335.241 279.009 338.182 273.861L335.903 279.413L330.719 282.317V282.317Z" fill="#161C31"/>
<path d="M263.836 197.131C263.836 200.146 262.035 202.609 259.792 202.609C257.55 202.609 255.748 200.146 255.748 197.131C255.748 194.117 257.55 191.653 259.792 191.653C262.035 191.653 263.836 194.117 263.836 197.131Z" fill="#161C31"/>
<path d="M322.292 197.168C322.292 200.183 320.49 202.646 318.247 202.646C316.005 202.646 314.203 200.183 314.203 197.168C314.203 194.153 316.005 191.69 318.247 191.69C320.49 191.69 322.292 194.153 322.292 197.168Z" fill="#161C31"/>
<path d="M240.83 171.8C246.271 165.88 254.691 162.976 262.853 163.344C266.934 163.491 271.051 164.336 274.802 166.174C278.515 167.976 281.971 170.844 283.846 174.741C284.875 176.616 285.243 178.895 285.464 180.917C285.647 182.94 285.684 184.962 285.758 186.947C285.868 190.955 285.868 194.962 285.868 198.933C285.868 206.911 285.427 214.889 285.022 222.867L284.471 222.279C288.515 222.463 292.559 222.573 296.604 222.83C292.559 223.088 288.515 223.198 284.471 223.382H283.919V222.794L283.662 198.896C283.625 194.925 283.552 190.955 283.368 186.984C283.111 183.013 283.221 178.969 281.677 175.734C280.133 172.425 277.191 169.814 273.809 168.123C270.426 166.432 266.64 165.439 262.779 165.072C255.058 164.446 246.97 166.505 240.867 171.763L240.83 171.8Z" fill="#161C31"/>
<path d="M345.54 171.8C342.451 169.447 338.959 167.939 335.392 166.873C331.789 165.88 328.076 165.329 324.363 165.366C316.936 165.366 309.436 167.13 303.186 171.8C305.575 168.711 308.958 166.358 312.671 164.924C316.384 163.454 320.392 162.792 324.363 162.792C328.333 162.829 332.341 163.527 336.017 164.998C339.694 166.432 343.15 168.711 345.54 171.8V171.8Z" fill="#161C31"/>
<path d="M270.688 242.243C273.555 244.669 276.717 246.655 279.952 248.272C283.225 249.853 286.681 250.919 290.173 251.03C293.629 251.177 297.196 250.405 300.321 248.677C302.012 248.015 303.372 246.765 304.953 245.809C306.424 244.706 307.747 243.382 309.255 242.243C308.188 243.75 307.049 245.294 305.762 246.728C304.328 247.941 303.041 249.485 301.313 250.405C298.115 252.647 294.034 253.714 290.1 253.566C286.129 253.419 282.305 252.059 279.033 250C275.761 247.978 272.893 245.331 270.724 242.243H270.688Z" fill="#161C31"/>
<path d="M259.799 224.485C259.799 230.073 253.77 234.632 246.343 234.632C238.916 234.632 232.887 230.073 232.887 224.485C232.887 218.896 238.916 214.337 246.343 214.337C253.77 214.337 259.799 218.896 259.799 224.485Z" fill="#FF8A5B" fill-opacity="0.2"/>
<path d="M345.159 224.485C345.159 230.073 339.129 234.632 331.702 234.632C324.276 234.632 318.246 230.073 318.246 224.485C318.246 218.896 324.276 214.337 331.702 214.337C339.129 214.337 345.159 218.896 345.159 224.485Z" fill="#FF8A5B" fill-opacity="0.2"/>
<path d="M216.49 156.873C213.659 163.307 214.247 171.395 218.695 176.469C222.335 180.623 227.924 182.535 235.644 173.601C251.123 155.696 236.049 143.122 256.527 149.409C277.043 155.696 268.586 126.431 290.388 130.622C312.19 134.813 320.904 115.916 330.684 141.983C340.463 168.086 353.405 153.968 349.471 170.733C347.008 181.248 356.493 179.741 363.883 177.131C368.663 175.439 371.236 169.41 369.582 163.932C363.883 145.218 345.647 100.474 293.183 103.71C242.483 106.835 223.181 141.762 216.49 156.873V156.873Z" fill="#161C31"/>
<path d="M337.364 350.297C294.753 369.856 243.428 350.518 242.877 350.297C189.419 361.474 141.146 392.136 135.668 445.116V526H443.323L445.198 447.836C440.712 393.607 391.777 361.731 337.364 350.26V350.297Z" fill="#FF61F5"/>
<path d="M337.364 350.297C294.753 369.856 243.428 350.518 242.877 350.297C189.419 361.474 141.146 392.136 135.668 445.116V526H443.323L445.198 447.836C440.712 393.607 391.777 361.731 337.364 350.26V350.297Z" stroke="#161C31" stroke-miterlimit="10" stroke-linecap="round"/>
<path d="M207.906 461.55V526" stroke="#161C31" stroke-miterlimit="10" stroke-linecap="round"/>
<path d="M371.297 461.55V526" stroke="#161C31" stroke-miterlimit="10" stroke-linecap="round"/>
</g>
<defs>
<clipPath id="clip0_131_16163">
<rect width="563.87" height="526" fill="white"/>
</clipPath>
</defs>
</svg>
