<svg width="78" height="78" viewBox="0 0 78 78" fill="none" xmlns="http://www.w3.org/2000/svg">
<circle cx="39" cy="30" r="22" fill="#00CBF3" fill-opacity="0.18"/>
<path d="M39.0003 15.6665V17.9998M18.0003 38.9998H15.667M23.8337 23.8332L22.4334 22.4329M54.167 23.8332L55.5676 22.4329M62.3337 38.9998H60.0003M34.3337 42.4998H43.667M39.0003 42.4998V54.1665M47.167 50.3724C50.6998 47.831 53.0003 43.6841 53.0003 38.9998C53.0003 31.2679 46.7323 24.9998 39.0003 24.9998C31.2683 24.9998 25.0003 31.2679 25.0003 38.9998C25.0003 43.6841 27.3008 47.831 30.8337 50.3724V54.8665C30.8337 57.4801 30.8337 58.7869 31.3423 59.7851C31.7897 60.6632 32.5036 61.3771 33.3817 61.8245C34.38 62.3332 35.6867 62.3332 38.3003 62.3332H39.7003C42.3139 62.3332 43.6207 62.3332 44.6189 61.8245C45.497 61.3771 46.2109 60.6632 46.6584 59.7851C47.167 58.7869 47.167 57.4801 47.167 54.8665V50.3724Z" stroke="#713BEB" stroke-width="3.3" stroke-linecap="round" stroke-linejoin="round"/>
</svg>
