<svg width="78" height="78" viewBox="0 0 78 78" fill="none" xmlns="http://www.w3.org/2000/svg">
<circle cx="39" cy="30" r="22" fill="#00CBF3" fill-opacity="0.18"/>
<path d="M53.0003 41.3332L49.9678 26.1708C49.7984 25.3238 49.7137 24.9003 49.5078 24.5554C49.3257 24.2505 49.0764 23.9912 48.779 23.7972C48.4425 23.5778 48.0226 23.4765 47.183 23.2738L15.667 15.6665M15.667 15.6665L23.2743 47.1825C23.477 48.0222 23.5783 48.442 23.7977 48.7785C23.9917 49.0759 24.251 49.3252 24.5559 49.5073C24.9008 49.7133 25.3243 49.798 26.1712 49.9674L41.3337 52.9998M15.667 15.6665L33.3677 33.3672M48.6402 59.6933L59.6938 48.6397C60.6178 47.7157 61.0798 47.2536 61.253 46.7209C61.4052 46.2522 61.4052 45.7474 61.253 45.2788C61.0798 44.746 60.6178 44.284 59.6938 43.36L57.9735 41.6397C57.0495 40.7157 56.5875 40.2536 56.0547 40.0805C55.5861 39.9283 55.0813 39.9283 54.6126 40.0805C54.0799 40.2536 53.6178 40.7157 52.6938 41.6397L41.6402 52.6933C40.7161 53.6173 40.2541 54.0794 40.081 54.6121C39.9288 55.0808 39.9288 55.5856 40.081 56.0542C40.2541 56.587 40.7162 57.049 41.6402 57.973L43.3605 59.6933C44.2845 60.6173 44.7465 61.0794 45.2793 61.2525C45.7479 61.4047 46.2527 61.4047 46.7214 61.2525C47.2541 61.0794 47.7161 60.6173 48.6402 59.6933ZM41.3337 36.6665C41.3337 39.2438 39.2443 41.3332 36.667 41.3332C34.0897 41.3332 32.0003 39.2438 32.0003 36.6665C32.0003 34.0892 34.0897 31.9998 36.667 31.9998C39.2443 31.9998 41.3337 34.0892 41.3337 36.6665Z" stroke="#713BEB" stroke-width="3.3" stroke-linecap="round" stroke-linejoin="round"/>
</svg>
