<svg width="78" height="78" viewBox="0 0 78 78" fill="none" xmlns="http://www.w3.org/2000/svg">
<circle cx="39" cy="30" r="22" fill="#00CBF3" fill-opacity="0.18"/>
<path d="M51.8333 36.6667H40.1667M51.8333 46H40.1667M51.8333 27.3333H40.1667M32 18L32 60M29.2 18H48.8C52.7204 18 54.6806 18 56.1779 18.763C57.4951 19.4341 58.5659 20.5049 59.237 21.8221C60 23.3194 60 25.2796 60 29.2V48.8C60 52.7204 60 54.6806 59.237 56.1779C58.5659 57.4951 57.4951 58.5659 56.1779 59.237C54.6806 60 52.7204 60 48.8 60H29.2C25.2796 60 23.3194 60 21.8221 59.237C20.5049 58.5659 19.4341 57.4951 18.763 56.1779C18 54.6806 18 52.7204 18 48.8V29.2C18 25.2796 18 23.3194 18.763 21.8221C19.4341 20.5049 20.5049 19.4341 21.8221 18.763C23.3194 18 25.2796 18 29.2 18Z" stroke="#713BEB" stroke-width="3.3" stroke-linecap="round" stroke-linejoin="round"/>
</svg>
