<svg width="78" height="78" viewBox="0 0 78 78" fill="none" xmlns="http://www.w3.org/2000/svg">
<circle cx="39" cy="30" r="22" fill="#00CBF3" fill-opacity="0.18"/>
<path d="M62.3337 32H15.667M43.667 51.8333L49.5003 46L43.667 40.1667M34.3337 40.1667L28.5003 46L34.3337 51.8333M15.667 29.2L15.667 48.8C15.667 52.7204 15.667 54.6805 16.4299 56.1779C17.1011 57.4951 18.1719 58.5659 19.4891 59.237C20.9864 60 22.9466 60 26.867 60H51.1337C55.054 60 57.0142 60 58.5116 59.237C59.8287 58.5659 60.8996 57.4951 61.5707 56.1779C62.3337 54.6805 62.3337 52.7204 62.3337 48.8V29.2C62.3337 25.2796 62.3337 23.3195 61.5707 21.8221C60.8996 20.5049 59.8287 19.4341 58.5116 18.763C57.0142 18 55.054 18 51.1337 18L26.867 18C22.9466 18 20.9864 18 19.4891 18.763C18.1719 19.4341 17.1011 20.5049 16.4299 21.8221C15.667 23.3194 15.667 25.2796 15.667 29.2Z" stroke="#713BEB" stroke-width="3.3" stroke-linecap="round" stroke-linejoin="round"/>
</svg>
